<svg width="71" height="70" viewBox="0 0 71 70" fill="none" xmlns="http://www.w3.org/2000/svg">
<g clip-path="url(#clip0)">
<path d="M61.2837 0H8.78306C3.95738 0 0.032959 3.92437 0.032959 8.75V61.25C0.032959 66.0756 3.95738 70 8.78306 70H61.2837C66.1093 70 70.0338 66.0756 70.0338 61.25V8.75C70.0338 3.92437 66.1093 0 61.2837 0Z" fill="#1976D2"/>
<path d="M59.0961 35H48.1585V26.25C48.1585 23.835 50.1185 24.0625 52.5335 24.0625H56.9086V13.125H48.1585C40.909 13.125 35.0333 19.0006 35.0333 26.25V35H26.2832V45.9375H35.0333V70H48.1585V45.9375H54.721L59.0961 35Z" fill="#FAFAFA"/>
</g>
<defs>
<clipPath id="clip0">
<rect width="70.0008" height="70" fill="white" transform="translate(0.032959)"/>
</clipPath>
</defs>
</svg>
