<svg width="150" height="150" viewBox="0 0 150 150" fill="none" xmlns="http://www.w3.org/2000/svg">
<path fill-rule="evenodd" clip-rule="evenodd" d="M15 0H135C143.285 0 150 6.7152 150 15V135C150 143.285 143.285 150 135 150H15C6.7152 150 0 143.285 0 135V15C0 6.7152 6.7152 0 15 0Z" fill="#010101"/>
<path fill-rule="evenodd" clip-rule="evenodd" d="M96.7005 60.7115C103.267 65.4029 111.312 68.1635 120 68.1635V51.4529C118.355 51.4535 116.715 51.282 115.107 50.9411V64.0949C106.419 64.0949 98.3757 61.3343 91.8075 56.6429V90.7439C91.8075 107.803 77.9715 121.631 60.9045 121.631C54.5367 121.631 48.6177 119.707 43.7007 116.407C49.3125 122.142 57.1383 125.7 65.7963 125.7C82.8645 125.7 96.7011 111.872 96.7011 94.8119V60.7115H96.7005ZM102.736 43.8527C99.3807 40.1885 97.1775 35.4527 96.7005 30.2171V28.0679H92.0637C93.2307 34.7219 97.2117 40.4069 102.736 43.8527V43.8527ZM54.4953 103.317C52.6206 100.86 51.6072 97.8538 51.6117 94.7633C51.6117 86.9609 57.9405 80.6351 65.7483 80.6351C67.2032 80.6341 68.6496 80.8573 70.0365 81.2969V64.2131C68.416 63.9911 66.7805 63.897 65.1453 63.9317V77.2289C63.7578 76.7893 62.3108 76.5661 60.8553 76.5671C53.0475 76.5671 46.7193 82.8929 46.7193 90.6959C46.7193 96.2129 49.8825 100.99 54.4953 103.317V103.317Z" fill="#EE1D52"/>
<path fill-rule="evenodd" clip-rule="evenodd" d="M91.8074 56.6429C98.3756 61.3343 106.419 64.0949 115.107 64.0949V50.9411C110.257 49.9091 105.964 47.3759 102.736 43.8527C97.2116 40.4069 93.2306 34.7219 92.0636 28.0679H79.8842V94.8113C79.8566 102.592 73.5386 108.892 65.7476 108.892C61.1564 108.892 57.0776 106.705 54.4946 103.317C49.8818 100.99 46.7186 96.2129 46.7186 90.6959C46.7186 82.8929 53.0468 76.5671 60.8546 76.5671C62.3504 76.5671 63.7922 76.7999 65.1446 77.2289V63.9317C48.3776 64.2779 34.8926 77.9711 34.8926 94.8119C34.8926 103.218 38.2508 110.84 43.7006 116.408C48.6176 119.708 54.5366 121.632 60.9044 121.632C77.9714 121.632 91.8074 107.803 91.8074 90.7445V56.6429Z" fill="white"/>
<path fill-rule="evenodd" clip-rule="evenodd" d="M115.106 50.9412V47.3844C110.733 47.391 106.446 46.167 102.736 43.8522C106.02 47.4461 110.345 49.9245 115.106 50.9412V50.9412ZM92.0631 28.068C91.9517 27.4322 91.8662 26.792 91.8069 26.1492V24H74.9902V90.744C74.9632 98.5242 68.6458 104.824 60.8543 104.824C58.5665 104.824 56.4071 104.282 54.4943 103.317C57.0773 106.705 61.1561 108.892 65.7473 108.892C73.5376 108.892 79.8562 102.592 79.8838 94.8114V28.068H92.0631ZM65.1448 63.9318V60.1452C63.7396 59.9531 62.323 59.8571 60.9047 59.8578C43.8359 59.8578 30 73.6866 30 90.744C30 101.438 35.4378 110.863 43.7009 116.407C38.2512 110.839 34.893 103.218 34.893 94.8114C34.893 77.9712 48.3773 64.278 65.1448 63.9318V63.9318Z" fill="#69C9D0"/>
</svg>
