<svg width="102" height="70" viewBox="0 0 102 70" fill="none" xmlns="http://www.w3.org/2000/svg">
<path d="M97.4909 6.74545C94.7291 1.83273 91.7318 0.929091 85.6291 0.585455C79.5327 0.171818 64.2027 0 50.9218 0C37.6155 0 22.2791 0.171819 16.1891 0.579091C10.0991 0.929091 7.09545 1.82636 4.30818 6.74545C1.46364 11.6518 0 20.1027 0 34.9809C0 34.9936 0 35 0 35C0 35.0127 0 35.0191 0 35.0191V35.0318C0 49.8464 1.46364 58.3609 4.30818 63.2164C7.09545 68.1291 10.0927 69.02 16.1827 69.4336C22.2791 69.79 37.6155 70 50.9218 70C64.2027 70 79.5327 69.79 85.6355 69.44C91.7382 69.0264 94.7355 68.1355 97.4973 63.2227C100.367 58.3673 101.818 49.8527 101.818 35.0382C101.818 35.0382 101.818 35.0191 101.818 35.0064C101.818 35.0064 101.818 34.9936 101.818 34.9873C101.818 20.1027 100.367 11.6518 97.4909 6.74545Z" fill="#F44336"/>
<path d="M38.1819 54.0909V15.9091L70.0001 35L38.1819 54.0909Z" fill="#FAFAFA"/>
</svg>
